# xmcd
#
# Track frame offsets:
#	150
#	21384
#	36657
#	64963
#	99270
#	126522
#	147496
#	176761
#	191224
#
# Disc length: 2832 seconds
#
# Revision: 1
# Processed by: cddbd v1.4PL0 Copyright (c) Steve Scherf et al.
# Submitted via: audiograbber 1.82.01
#
DISCID=910b0e09
DTITLE=Badawist Fone - Badawist Fone
DYEAR=1900
DGENRE=
TTITLE0=Walid Tawfic - Ana Fen
TTITLE1=Alaa Zalzali - Hobak
TTITLE2=Tony Kiwan - Cocktail
TTITLE3=Sabah W Fadi - Khalihom Mehtarin
TTITLE4=Mohamad Iskandar - El Hassoudi
TTITLE5=Ayman Zbib - Ya Habibi
TTITLE6=Joseph Nemnom - Beirut
TTITLE7=Nabiya Sabri W Georgette Sayegh - Bayyi Ma Baddo
TTITLE8=Hany Jamil - Wa3edtina
EXTD=
EXTT0=
EXTT1=
EXTT2=
EXTT3=
EXTT4=
EXTT5=
EXTT6=
EXTT7=
EXTT8=
PLAYORDER=
